<?xml version="1.0" encoding="iso-8859-1"?>
<!-- Generator: Adobe Illustrator 19.0.0, SVG Export Plug-In . SVG Version: 6.00 Build 0)  -->
<svg version="1.1" id="Capa_1" xmlns="http://www.w3.org/2000/svg" xmlns:xlink="http://www.w3.org/1999/xlink" x="0px" y="0px"
	 viewBox="0 0 512 512" style="enable-background:new 0 0 512 512;" xml:space="preserve">
<path style="fill:#00A554;" d="M349.586,126.51c0,45.05-13.25,85.21-24.37,110.97l-3.91,9.05h-56.77l-3.91-9.05
	c-11.12-25.76-24.37-65.92-24.37-110.97c0-33.13,6.95-67.46,20.68-102.05C262.826,9.6,276.956,0,292.916,0
	c15.97,0,30.1,9.6,35.99,24.46C342.626,59.05,349.586,93.38,349.586,126.51z"/>
<path style="fill:#008B46;" d="M349.586,126.51c0,45.05-13.25,85.21-24.37,110.97l-3.91,9.05h-28.39V0c15.97,0,30.1,9.6,35.99,24.46
	C342.626,59.05,349.586,93.38,349.586,126.51z"/>
<path style="fill:#00A554;" d="M274.586,126.51c0,45.05-13.25,85.21-24.37,110.97l-3.91,9.05h-56.77l-3.91-9.05
	c-11.12-25.76-24.37-65.92-24.37-110.97c0-33.13,6.95-67.46,20.68-102.05C187.826,9.6,201.956,0,217.916,0
	c15.97,0,30.1,9.6,35.99,24.46C267.626,59.05,274.586,93.38,274.586,126.51z"/>
<path style="fill:#008B46;" d="M274.586,126.51c0,45.05-13.25,85.21-24.37,110.97l-3.91,9.05h-28.39V0c15.97,0,30.1,9.6,35.99,24.46
	C267.626,59.05,274.586,93.38,274.586,126.51z"/>
<path style="fill:#3ACC8F;" d="M380.278,207.421c-9.069,44.128-30.132,80.798-46.21,103.792l-5.652,8.078l-55.608-11.428
	l-2.008-9.652c-5.707-27.471-10.601-69.476-1.532-113.604c6.669-32.452,20.388-64.68,40.8-95.798
	c8.761-13.37,24.534-19.929,40.167-16.716c15.643,3.215,27.551,15.463,30.329,31.204
	C387.04,139.941,386.947,174.969,380.278,207.421z"/>
<g>
	<path style="fill:#00A554;" d="M380.278,207.421c-9.069,44.128-30.132,80.798-46.21,103.792l-5.652,8.078l-27.809-5.715
		l49.628-241.483c15.643,3.215,27.551,15.463,30.329,31.204C387.04,139.941,386.947,174.969,380.278,207.421z"/>
	<path style="fill:#00A554;" d="M131.722,207.421c9.069,44.128,30.132,80.798,46.21,103.792l5.652,8.078l55.608-11.428l2.008-9.652
		c5.707-27.471,10.601-69.476,1.532-113.604c-6.669-32.452-20.388-64.68-40.8-95.798c-8.761-13.37-24.534-19.929-40.167-16.716
		c-15.643,3.215-27.551,15.463-30.329,31.204C124.96,139.941,125.053,174.969,131.722,207.421z"/>
</g>
<path style="fill:#3ACC8F;" d="M131.722,207.421c9.069,44.128,30.132,80.798,46.21,103.792l5.652,8.078l27.809-5.715L161.765,72.092
	c-15.643,3.215-27.551,15.463-30.329,31.204C124.96,139.941,125.053,174.969,131.722,207.421z"/>
<path style="fill:#60DD4D;" d="M312.091,196.08c0,45.05-13.25,85.21-24.37,110.97l-3.91,9.05h-56.77l-3.91-9.05
	c-11.12-25.76-24.37-65.92-24.37-110.97c0-33.13,6.95-67.46,20.68-102.05c5.89-14.86,20.02-24.46,35.98-24.46
	c15.97,0,30.1,9.6,35.99,24.46C305.131,128.62,312.091,162.95,312.091,196.08z"/>
<path style="fill:#00C37A;" d="M312.091,196.08c0,45.05-13.25,85.21-24.37,110.97l-3.91,9.05h-28.39V69.57
	c15.97,0,30.1,9.6,35.99,24.46C305.131,128.62,312.091,162.95,312.091,196.08z"/>
<rect x="166.92" y="346.06" style="fill:#DCB596;" width="177" height="165.94"/>
<g>
	<rect x="255.42" y="346.06" style="fill:#BC8C76;" width="88.5" height="165.94"/>
	<rect x="153.46" y="288.35" style="fill:#BC8C76;" width="203.92" height="87.71"/>
</g>
<rect x="255.42" y="288.35" style="fill:#9E5B4B;" width="101.96" height="87.71"/>
<g>
</g>
<g>
</g>
<g>
</g>
<g>
</g>
<g>
</g>
<g>
</g>
<g>
</g>
<g>
</g>
<g>
</g>
<g>
</g>
<g>
</g>
<g>
</g>
<g>
</g>
<g>
</g>
<g>
</g>
</svg>
