<?xml version="1.0" standalone="no"?>
<!DOCTYPE svg PUBLIC "-//W3C//DTD SVG 20010904//EN"
 "http://www.w3.org/TR/2001/REC-SVG-20010904/DTD/svg10.dtd">
<svg version="1.0" xmlns="http://www.w3.org/2000/svg"
 width="700.000000pt" height="700.000000pt" viewBox="0 0 700.000000 700.000000"
 preserveAspectRatio="xMidYMid meet">
<metadata>
Created by potrace 1.11, written by Peter Selinger 2001-2013
</metadata>
<g transform="translate(0.000000,700.000000) scale(0.100000,-0.100000)"
fill="#000000" stroke="none">
<path d="M2890 6993 c-141 -25 -277 -116 -355 -237 -56 -88 -169 -411 -225
-642 -12 -50 -27 -91 -33 -91 -66 -1 -167 -33 -239 -76 -98 -58 -183 -166
-222 -281 -17 -50 -50 -247 -61 -361 -4 -38 -9 -81 -12 -95 -2 -14 -6 -142 -8
-285 -5 -347 22 -600 90 -870 14 -55 28 -111 31 -125 10 -45 86 -263 129 -370
50 -124 135 -302 200 -417 l45 -83 -42 -1 c-24 -1 -53 -1 -65 -2 -13 0 -23 -3
-23 -6 -3 -47 0 -1184 3 -1187 2 -2 43 -4 90 -5 74 -1 87 -3 88 -17 0 -10 1
-428 1 -930 l0 -912 1211 2 1211 3 1 925 0 925 70 1 c39 1 80 2 93 3 l22 1 0
600 0 600 -60 0 -60 0 40 73 c247 444 397 915 444 1392 14 139 15 561 1 690
-45 434 -79 541 -217 674 -54 52 -165 108 -243 122 -33 6 -69 13 -80 15 -17 3
-25 23 -49 121 -52 214 -161 524 -212 604 -95 151 -247 239 -424 245 -185 7
-345 -68 -449 -210 -37 -52 -81 -135 -81 -158 -1 -7 -15 16 -33 52 -104 209
-266 316 -482 317 -38 1 -81 -1 -95 -4z"/>
</g>
</svg>
